# Blender v2.65 (sub 0) OBJ File: ''
# www.blender.org
mtllib 3axis.mtl
o Cone.000_Cone.004
v -0.100000 0.800000 -0.000000
v 0.000000 1.000000 -0.000000
v -0.070711 0.800000 -0.070711
v -0.045880 0.800000 -0.000000
v -0.032442 0.800000 -0.032442
v -0.070711 0.800000 0.070711
v 0.000000 0.800000 -0.100000
v -0.032442 -0.000000 -0.032442
v -0.045880 -0.000000 -0.000000
v -0.032442 0.800000 0.032442
v 0.000000 0.800000 -0.045880
v -0.000000 0.800000 0.100000
v 0.070711 0.800000 -0.070711
v -0.032442 0.032442 0.032442
v -0.000000 -0.000000 -0.045880
v -0.000000 0.800000 0.045880
v 0.032442 0.800000 -0.032442
v 0.070711 0.800000 0.070711
v 0.100000 0.800000 -0.000000
v -0.000000 0.045880 0.045880
v 0.032442 0.032442 -0.032442
v -0.000000 -0.045880 0.000000
v 0.032442 0.800000 0.032442
v 0.045880 0.800000 -0.000000
v 0.032442 0.032442 0.032442
v 0.045880 0.045880 -0.000000
v 0.800000 0.032442 -0.032442
v 0.800000 0.000000 -0.045880
v -0.000000 -0.032442 -0.032442
v 0.800000 0.045880 -0.000000
v 0.800000 0.070711 -0.070711
v 0.800000 0.000000 -0.100000
v 0.800000 -0.032442 -0.032442
v 0.800000 -0.045880 -0.000000
v 0.800000 0.032442 0.032442
v 0.800000 0.100000 -0.000000
v 1.000000 0.000000 -0.000000
v 0.800000 -0.070711 -0.070711
v 0.800000 -0.100000 -0.000000
v 0.800000 -0.032442 0.032442
v 0.032442 -0.032442 0.032442
v 0.045880 0.000000 0.045880
v 0.800000 0.000000 0.045880
v 0.800000 0.070711 0.070711
v 0.800000 -0.070711 0.070711
v 0.800000 0.000000 0.100000
v -0.100000 0.000000 0.800000
v 0.000000 0.000000 1.000000
v -0.070711 0.070711 0.800000
v -0.045880 0.000000 0.800000
v -0.032442 0.032442 0.800000
v -0.070711 -0.070711 0.800000
v 0.000000 0.100000 0.800000
v 0.000000 0.045880 0.800000
v -0.032442 -0.032442 0.800000
v -0.000000 -0.100000 0.800000
v 0.070711 0.070711 0.800000
v 0.032442 0.032442 0.800000
v -0.032442 -0.032442 0.000000
v -0.000000 -0.045880 0.800000
v 0.070711 -0.070711 0.800000
v 0.100000 0.000000 0.800000
v 0.045880 0.000000 0.800000
v 0.032442 -0.032442 0.800000
vn 0.419358 0.838717 -0.347408
vn 0.419358 -0.347408 -0.838717
vn 0.419358 0.347408 -0.838717
vn 0.419358 -0.838717 -0.347408
vn 0.419358 0.838717 0.347408
vn 0.419359 0.347408 0.838717
vn 0.419359 -0.347408 0.838717
vn 0.419359 -0.838717 0.347408
vn -0.000000 0.923880 0.382683
vn -1.000000 0.000000 -0.000000
vn 0.000000 -0.923880 -0.382684
vn 0.000000 0.382684 0.923879
vn -0.000000 0.382683 -0.923880
vn -0.000000 -0.382684 -0.923879
vn 0.000000 -0.382683 0.923879
vn -0.000000 0.923880 -0.382683
vn 0.000000 -0.923880 0.382684
vn -0.838717 0.419358 -0.347408
vn 0.347408 0.419358 -0.838717
vn -0.347408 0.419358 -0.838717
vn 0.838717 0.419358 -0.347408
vn -0.838717 0.419359 0.347408
vn -0.347408 0.419359 0.838717
vn 0.347408 0.419359 0.838717
vn 0.838717 0.419359 0.347408
vn -0.923879 0.000000 0.382683
vn 0.000000 -1.000000 -0.000000
vn 0.923879 -0.000000 -0.382683
vn -0.382684 0.000000 0.923880
vn -0.382684 -0.000000 -0.923879
vn 0.382684 -0.000000 -0.923879
vn 0.382684 0.000000 0.923879
vn -0.923880 -0.000000 -0.382683
vn 0.923879 0.000000 0.382684
vn -0.838717 0.347408 0.419358
vn 0.347408 0.838717 0.419358
vn -0.347408 0.838717 0.419358
vn 0.838717 0.347408 0.419358
vn -0.838717 -0.347408 0.419359
vn -0.347408 -0.838717 0.419359
vn 0.347408 -0.838717 0.419358
vn 0.838717 -0.347408 0.419358
vn -0.923880 -0.382683 0.000000
vn 0.000000 0.000000 -1.000000
vn 0.923880 0.382683 -0.000000
vn -0.382684 -0.923879 0.000000
vn -0.382684 0.923880 -0.000000
vn 0.382683 0.923880 -0.000000
vn 0.382684 -0.923879 0.000000
vn -0.923880 0.382683 0.000000
vn 0.923880 -0.382684 -0.000000
vn -0.577350 -0.577350 -0.577350
vn -0.357407 -0.862856 -0.357407
vn -0.862856 -0.357407 -0.357407
vn -0.357407 -0.357407 -0.862856
usemtl Material.001
s off
f 36//1 37//1 31//1
f 32//2 37//2 38//2
f 37//3 32//3 31//3
f 38//4 37//4 39//4
f 44//5 37//5 36//5
f 46//6 37//6 44//6
f 45//7 37//7 46//7
f 39//8 37//8 45//8
f 35//9 30//9 26//9
f 35//9 26//9 25//9
f 32//10 38//10 33//10
f 32//10 33//10 28//10
f 33//10 38//10 39//10
f 33//10 39//10 34//10
f 40//10 34//10 39//10
f 40//10 39//10 45//10
f 40//10 45//10 46//10
f 40//10 46//10 43//10
f 35//10 43//10 46//10
f 35//10 46//10 44//10
f 35//10 44//10 36//10
f 35//10 36//10 30//10
f 30//10 36//10 31//10
f 30//10 31//10 27//10
f 32//10 28//10 27//10
f 32//10 27//10 31//10
f 34//11 22//11 29//11
f 34//11 29//11 33//11
f 42//12 43//12 35//12
f 42//12 35//12 25//12
f 21//13 27//13 28//13
f 21//13 28//13 15//13
f 33//14 29//14 15//14
f 33//14 15//14 28//14
f 40//15 43//15 42//15
f 40//15 42//15 41//15
f 26//16 30//16 27//16
f 26//16 27//16 21//16
f 34//17 40//17 41//17
f 34//17 41//17 22//17
usemtl Material.002
f 1//18 2//18 3//18
f 7//19 2//19 13//19
f 2//20 7//20 3//20
f 13//21 2//21 19//21
f 2//22 1//22 6//22
f 12//23 2//23 6//23
f 18//24 2//24 12//24
f 19//25 2//25 18//25
f 14//26 10//26 4//26
f 14//26 4//26 9//26
f 7//27 13//27 17//27
f 7//27 17//27 11//27
f 17//27 13//27 19//27
f 17//27 19//27 24//27
f 23//27 24//27 19//27
f 23//27 19//27 18//27
f 23//27 18//27 12//27
f 23//27 12//27 16//27
f 10//27 16//27 12//27
f 10//27 12//27 6//27
f 1//27 4//27 10//27
f 1//27 10//27 6//27
f 4//27 1//27 3//27
f 4//27 3//27 5//27
f 7//27 11//27 5//27
f 7//27 5//27 3//27
f 17//28 24//28 26//28
f 17//28 26//28 21//28
f 20//29 16//29 10//29
f 20//29 10//29 14//29
f 11//30 15//30 8//30
f 11//30 8//30 5//30
f 11//31 17//31 21//31
f 11//31 21//31 15//31
f 23//32 16//32 20//32
f 23//32 20//32 25//32
f 4//33 5//33 8//33
f 4//33 8//33 9//33
f 26//34 24//34 23//34
f 26//34 23//34 25//34
usemtl Material.003
f 47//35 48//35 49//35
f 53//36 48//36 57//36
f 48//37 53//37 49//37
f 57//38 48//38 62//38
f 52//39 48//39 47//39
f 56//40 48//40 52//40
f 61//41 48//41 56//41
f 62//42 48//42 61//42
f 50//43 9//43 59//43
f 50//43 59//43 55//43
f 53//44 57//44 58//44
f 53//44 58//44 54//44
f 58//44 57//44 62//44
f 58//44 62//44 63//44
f 64//44 63//44 62//44
f 64//44 62//44 61//44
f 64//44 61//44 56//44
f 64//44 56//44 60//44
f 55//44 60//44 56//44
f 55//44 56//44 52//44
f 50//44 55//44 52//44
f 50//44 52//44 47//44
f 50//44 47//44 49//44
f 50//44 49//44 51//44
f 53//44 54//44 51//44
f 53//44 51//44 49//44
f 58//45 63//45 42//45
f 58//45 42//45 25//45
f 55//46 59//46 22//46
f 55//46 22//46 60//46
f 51//47 54//47 20//47
f 51//47 20//47 14//47
f 20//48 54//48 58//48
f 20//48 58//48 25//48
f 41//49 64//49 60//49
f 41//49 60//49 22//49
f 50//50 51//50 14//50
f 50//50 14//50 9//50
f 42//51 63//51 64//51
f 42//51 64//51 41//51
usemtl Material.004
f 8//52 29//52 59//52
f 29//53 22//53 59//53
f 9//54 8//54 59//54
f 8//55 15//55 29//55
